<svg width="40" height="40" viewBox="0 0 40 40" fill="none" xmlns="http://www.w3.org/2000/svg">
<path d="M33.5541 27.8495L32.3183 36.2582C32.1402 37.4667 31.7183 38.366 31.1512 38.9863C30.5263 39.6688 29.7263 40 28.8795 40H11.1204C10.2736 40 9.47528 39.6688 8.84878 38.9863C8.28164 38.364 7.8598 37.4667 7.6817 36.2582L6.44589 27.8495L3.38055 34.0644C3.16495 34.49 2.8384 34.767 2.47596 34.8674C2.11818 34.9678 1.73539 34.9015 1.40418 34.6446L0.673009 34.0504C0.337105 33.7734 0.115262 33.3478 0.0371499 32.8821C-0.047218 32.4164 0.01059 31.9086 0.226196 31.471L5.86765 20.0349H3.15543C2.67736 20.0349 2.24616 19.784 1.93055 19.3805C1.61496 18.975 1.42124 18.421 1.42124 17.8067V14.888C1.42124 14.2737 1.61653 13.7197 1.93055 13.3142L1.9618 13.2801C2.27271 12.8947 2.69297 12.6578 3.15544 12.6578H36.843C37.3211 12.6578 37.7523 12.9087 38.0679 13.3122L38.0944 13.3523C38.3944 13.7518 38.5788 14.2918 38.5788 14.886V17.8047C38.5788 18.419 38.3788 18.973 38.0695 19.3785C37.7539 19.784 37.3226 20.0329 36.8446 20.0329H34.1324L39.7738 31.469C39.9894 31.9086 40.0472 32.4144 39.9629 32.8801C39.8847 33.3459 39.6629 33.7714 39.327 34.0484L38.638 34.6085C38.6177 34.6285 38.6005 34.6426 38.5802 34.6566C38.249 34.9076 37.8756 34.9678 37.524 34.8654C37.1663 34.765 36.8413 34.494 36.6257 34.0745L33.5557 27.8477L33.5541 27.8495ZM23.8394 11.1522C23.4926 8.42419 23.9863 5.594 26.3095 4.4655C27.5656 3.85125 28.5593 4.6823 29.2217 5.21624C29.4951 5.43906 29.6576 5.58158 29.8638 5.60166C30.0748 5.58158 30.2372 5.43906 30.5107 5.21624C31.1731 4.68226 32.1667 3.85125 33.4229 4.4655C35.7461 5.59364 36.2414 8.42403 35.8929 11.1522C35.8398 11.5517 35.5774 11.8407 35.2618 11.8407H24.4644C24.1488 11.8407 23.8863 11.5497 23.8394 11.1522ZM20.3851 3.75479L22.4833 4.67419C22.5302 4.69427 22.5614 4.72839 22.5833 4.78259C22.6036 4.83679 22.6036 4.89099 22.588 4.94519L22.4302 5.54541C22.3989 5.65983 22.3036 5.72005 22.2193 5.67991L20.1164 4.76858C20.0742 4.7485 20.0429 4.71438 20.0211 4.66018C20.0007 4.60598 19.9945 4.55178 20.0101 4.49758L20.1726 3.88934C20.1992 3.78094 20.2929 3.72072 20.3835 3.75485L20.3851 3.75479ZM19.6383 5.05154L22.4239 6.22588C22.5927 6.30015 22.7176 6.43464 22.7973 6.64542C22.8754 6.84816 22.8817 7.06496 22.8239 7.27375C22.5348 8.34166 22.4614 9.67258 22.577 11.0296C22.577 11.0296 22.7129 11.704 22.1505 11.8405L17.2042 11.8546C17.162 11.8546 17.1261 11.8345 17.0995 11.7803C17.0729 11.7321 17.0729 11.6799 17.0886 11.6257C17.1354 11.4912 17.1839 11.2945 17.1839 11.0516V8.24933L18.9353 5.3306C19.104 5.04756 19.3774 4.93916 19.6399 5.05359L19.6383 5.05154ZM10.0596 1.10102H14.7171C14.9327 1.10102 15.1062 1.32384 15.1062 1.60086V5.76819L15.8108 8.50423V11.3346C15.8108 11.6116 15.6327 11.8405 15.4171 11.8405H4.70249C4.48689 11.8405 4.31347 11.6116 4.31347 11.3346V8.50423L5.0134 5.76819V1.60086C5.0134 1.32385 5.18682 1.10102 5.40243 1.10102H10.0596ZM10.0596 4.68822H12.5047C12.7734 4.68822 12.989 4.4112 12.989 4.06595V3.48582C12.989 3.14055 12.7734 2.86356 12.5047 2.86356H7.61434C7.35187 2.86356 7.13003 3.14057 7.13003 3.48582V4.06595C7.13003 4.41122 7.35032 4.68822 7.61434 4.68822H10.0596ZM24.9582 0.2158C26.9611 -0.372345 29.2577 0.175652 29.4421 2.68087C29.4468 2.76117 29.4046 2.83544 29.3421 2.86354C26.7971 3.8572 25.3566 2.57247 24.8518 0.424577C24.8408 0.3764 24.8471 0.33625 24.8674 0.290083C24.8877 0.249935 24.9205 0.221833 24.9564 0.21581L24.9582 0.2158ZM30.7624 0.755794C30.1625 1.45237 29.7313 3.35535 29.9312 4.3028C30.0047 4.74844 30.425 4.357 30.5249 4.086C30.7249 3.51189 30.7609 2.58648 31.3717 1.76148C31.5873 1.47041 31.8655 1.36202 31.9139 1.11311C32.0029 0.661449 31.4295 -0.00902094 30.7624 0.755794ZM31.3827 36.0353L32.8075 26.3356L29.6953 20.0343H10.3064L7.19422 26.3356L8.61909 36.0353C8.75501 36.9406 9.05496 37.609 9.46588 38.0487C9.91272 38.5425 10.497 38.7713 11.122 38.7713H28.8811C29.506 38.7713 30.0903 38.5425 30.5371 38.0487C30.9465 37.6091 31.2464 36.9406 31.3839 36.0353H31.3827ZM12.4361 24.6614C12.3986 24.3301 12.5829 24.019 12.8407 23.9729C13.1032 23.9187 13.3454 24.1555 13.3829 24.4928L14.5343 34.6523C14.5718 34.9896 14.3921 35.3007 14.1297 35.3489C13.8672 35.3971 13.625 35.1602 13.5875 34.829L12.4361 24.6638V24.6614ZM19.523 24.5128C19.523 24.1756 19.7386 23.8986 20.0011 23.8986C20.2635 23.8986 20.4791 24.1756 20.4791 24.5128V34.8009C20.4791 35.1381 20.2635 35.4151 20.0011 35.4151C19.7386 35.4151 19.523 35.1381 19.523 34.8009V24.5128ZM26.4143 34.8266C26.3722 35.1578 26.1362 35.3947 25.8722 35.3465C25.6097 35.2983 25.43 34.9891 25.4675 34.6499L26.619 24.4903C26.6565 24.1531 26.8971 23.9162 27.1611 23.9704C27.4189 24.0186 27.6033 24.3277 27.5658 24.6589L26.4143 34.8241V34.8266ZM6.31627 18.8056C6.36314 18.8056 6.41626 18.8116 6.46313 18.8317L7.6349 16.4469C7.8505 16.0153 8.18172 15.7383 8.54417 15.6299H8.54885C8.91132 15.5296 9.30658 15.5958 9.64251 15.8728L10.3471 16.447C10.683 16.724 10.9049 17.1495 10.9893 17.6213C11.058 18.0067 11.0268 18.4242 10.894 18.8036H29.1046C28.9734 18.4263 28.9421 18.0067 29.0093 17.6153C29.0937 17.1496 29.3093 16.724 29.6514 16.447L30.3561 15.8729C30.692 15.5959 31.0872 15.5276 31.4497 15.63H31.4544C31.8169 15.7384 32.1481 16.0154 32.3637 16.447L33.526 18.8036H36.8429C37.0585 18.8036 37.2522 18.6892 37.3897 18.5065C37.5319 18.3319 37.621 18.081 37.621 17.8039V14.8852C37.621 14.6222 37.5429 14.3854 37.4101 14.2027L37.3898 14.1826C37.2538 14 37.0585 13.8855 36.8429 13.8855H3.15536C2.95069 13.8855 2.76633 13.9859 2.62417 14.1565L2.60855 14.1826C2.46637 14.3573 2.37732 14.6082 2.37732 14.8852V17.8039C2.37732 18.081 2.46638 18.3299 2.60855 18.5065C2.74447 18.6892 2.93976 18.8036 3.15538 18.8036H6.31443L6.31627 18.8056ZM9.83781 17.4807L9.1332 16.9066C9.01758 16.8123 8.8801 16.7922 8.75511 16.8263C8.62856 16.8604 8.51919 16.9608 8.4442 17.1093L1.03251 32.1303C0.959085 32.2788 0.937211 32.4555 0.963769 32.6101C0.995016 32.7727 1.06845 32.9212 1.18406 33.0156C1.42622 33.2123 1.66213 33.407 1.90431 33.5957C2.01992 33.684 2.15116 33.7101 2.27303 33.67C2.39333 33.6358 2.50894 33.5415 2.58393 33.3929L9.99562 18.372C10.069 18.2174 10.0847 18.0408 10.0581 17.8862C10.0316 17.7236 9.95342 17.5831 9.83781 17.4807ZM30.867 16.9066L30.1624 17.4807C30.0468 17.5811 29.9671 17.7236 29.9421 17.8862C29.9155 18.0408 29.9311 18.2034 29.9952 18.3459C32.5403 23.2439 34.9167 28.4428 37.4181 33.3951C37.4915 33.5437 37.6071 33.638 37.729 33.6721C37.8493 33.7063 37.9758 33.6862 38.0915 33.6039L38.8164 33.0157C38.932 32.9214 39.0054 32.7728 39.032 32.6102C39.0632 32.4557 39.0429 32.279 38.9695 32.1305L31.5578 17.1095C31.4844 16.961 31.3735 16.8586 31.2469 16.8265C31.1204 16.7924 30.9844 16.8124 30.8688 16.9068L30.867 16.9066Z" fill="black"/>
</svg>
