<?xml version="1.0" encoding="UTF-8"?>
<svg width="1200pt" height="1200pt" version="1.1" viewBox="0 0 1200 1200" xmlns="http://www.w3.org/2000/svg">
 <path d="m1143.3 321.31c-0.69531-69.742-34.32-109.75-92.281-109.75-19.344 0-41.449 4.5-65.723 13.379-173.44 63.445-273.76 145.13-329.22 206.53-3.7578-17.051-8.4844-32.543-14.195-45.469 0.023438-0.13281 0.10938-0.22656 0.10938-0.35938 0.14453-1.5469 15.277-156.13 175.67-198.83 4.332-1.1523 6.9102-5.6055 5.7617-9.9375-1.1641-4.332-5.6406-6.8984-9.9375-5.7461-135.32 36.023-173.83 147.05-184.14 192.94-8.2578-10.777-17.832-17.016-28.691-17.016-10.367 0-19.586 5.7227-27.59 15.637-10.766-46.727-49.906-155.89-183.83-191.54-4.3555-1.1523-8.7734 1.4297-9.9375 5.7461-1.1523 4.332 1.4297 8.7852 5.7461 9.9375 152.15 40.5 173.26 177.8 175.45 196.77-6.3359 13.691-11.52 30.48-15.527 49.094-55.43-61.789-155.93-143.95-330.31-207.74-24.254-8.8789-46.367-13.379-65.711-13.379-57.984 0-91.633 39.996-92.316 109.75-1.4531 148.01 136.31 372.83 329.29 410.29-36.91 11.207-85.871 33.098-115.01 74.438-23.594 33.469-30.109 73.992-19.355 120.54 14.82 64.223 64.738 102.59 133.5 102.59 72.613 0 143.11-42.684 179.94-106.31 14.773 99.047 27.395 99.098 35.676 99.098 8.2188 0 20.734-0.070313 35.387-97.246 37.117 62.508 107.23 104.44 178.86 104.46 68.762 0 118.68-38.363 133.51-102.59 10.738-46.547 4.2227-87.07-19.355-120.54-29.137-41.34-78.109-63.238-115.01-74.438 192.96-37.457 330.72-262.28 329.23-410.3zm-758.25 691.61c-60.684 0-104.68-33.66-117.68-90-9.6602-41.809-4.0078-77.977 16.766-107.46 46.031-65.363 151.73-78.469 152.77-78.59l-0.76953-16.199c-95.629-1.8945-188.75-54.121-262.25-147.01-62.113-78.527-101.76-177.52-101.03-252.18 0.34766-34.992 10.703-93.684 76.094-93.684 17.438 0 37.668 4.1758 60.133 12.383 189.25 69.238 288.55 161.82 332 212.7-0.32422 1.9688-0.55078 4.0547-0.83984 6.0586-0.38281 2.6289-0.75781 5.2812-1.1055 7.957-0.44531 3.5391-0.86328 7.0938-1.2461 10.703-0.37109 3.5156-0.70703 7.043-1.0078 10.598-0.21484 2.4492-0.39453 4.8828-0.57422 7.3438-0.35938 5.1719-0.67188 10.367-0.875 15.574-0.046875 1.0547-0.097656 2.1133-0.13281 3.1797-0.23828 6.5039-0.35938 12.996-0.35938 19.488 0 2.8672 0.023437 6.0469 0.070312 9.3594 0 0.48047 0 0.94922 0.011719 1.4297 0.82812 58.379 7.7891 179.04 18.48 283.8 0.15625 1.4531 0.30078 2.9023 0.45703 4.3555 0.22656 2.207 0.45703 4.3789 0.69531 6.5625 2.1836 20.699 4.3086 39.145 6.4219 55.402-34.496 81.219-115.17 118.23-176.04 118.23zm215.62-8.7148c-7.9336-10.945-15.875-52.379-23.004-107.06l0.14453-0.32422-0.27734-2.1602c-15.215-115.52-25.488-283.03-26.27-352.79-0.023437-2.7734-0.046874-5.543-0.046874-8.0742 0-6.6367 0.14453-13.262 0.38281-19.836 0.085938-2.1367 0.21484-4.1875 0.3125-6.3008 0.21484-4.2461 0.44531-8.4844 0.75781-12.672 0.21484-2.8789 0.45703-5.6992 0.70703-8.4961 0.27734-3.0117 0.58984-6 0.91016-8.9766 0.39453-3.5391 0.78125-7.0938 1.2461-10.512 0.17969-1.3086 0.37109-2.5664 0.5625-3.8516 8.6406-60.059 27.348-99.863 44.594-99.863 17.316 0 36.145 40.176 44.734 100.73 0.097656 0.81641 0.23828 1.5859 0.34766 2.3984 0.48047 3.4922 0.86328 7.1172 1.2617 10.738 0.32422 2.9023 0.63672 5.8086 0.88672 8.7617 0.27734 2.8906 0.51563 5.8086 0.75781 8.7617 0.28906 4.1406 0.53906 8.3047 0.75781 12.504 0.12109 2.1953 0.25391 4.3789 0.33594 6.6133 0.25391 6.6367 0.38281 13.309 0.38281 20.016 0 2.5078-0.023438 5.2578-0.046876 8.0039-0.80469 71.387-11.723 243.6-26.605 355.33l-0.28906 2.207 0.15625 0.37109c-7.0859 53.391-14.898 93.699-22.699 104.48zm163.16-283.52-0.76953 16.199c1.0547 0.12109 106.61 13.105 152.75 78.516 20.797 29.531 26.461 65.699 16.789 107.53-13.008 56.363-57 90-117.68 90-59.941-0.023438-139.88-36.254-175-115.8 2.1016-15.938 4.2109-34.031 6.3594-54.324 0.42187-3.8633 0.82812-7.7539 1.2461-11.699 0.023438-0.21484 0.035157-0.42188 0.070313-0.63672 10.836-105.28 17.879-227.03 18.684-286 0.023437-0.42188 0.023437-0.79297 0.023437-1.1992 0.035156-3.3477 0.070313-6.5625 0.070313-9.4805 0-6.5742-0.14453-13.176-0.37109-19.754-0.046875-1.1172-0.085938-2.2188-0.14453-3.3242-0.21484-5.2578-0.51562-10.5-0.88672-15.707-0.19141-2.6758-0.40625-5.3281-0.63672-7.9805-0.30078-3.5273-0.66016-7.043-1.043-10.523-0.43359-4.0938-0.9375-8.0898-1.4648-12.086-0.30078-2.2578-0.61328-4.5234-0.94922-6.7578-0.30078-2.0156-0.52734-4.1172-0.85156-6.0977 52.223-60.781 151.59-145.78 330.85-211.37 22.465-8.2188 42.707-12.383 60.145-12.383 65.363 0 75.707 58.691 76.055 93.672 0.75781 74.664-38.914 173.65-101.03 252.19-73.465 92.887-166.59 145.1-262.21 147.01z"/>
</svg>
