<svg width="30" height="40" viewBox="0 0 30 40" fill="none" xmlns="http://www.w3.org/2000/svg">
<path d="M2.5 9C1.1212 9 0 10.279 0 11.8518V28.1481C0 29.721 1.1212 31 2.5 31H27.5C28.8788 31 30 29.721 30 28.1481V11.8518C30 10.279 28.8788 9 27.5 9H2.5ZM2.5 9.81481H27.5C27.9384 9.81481 28.3296 10.0059 28.6384 10.2986L16.3058 22.2789C15.5141 23.0469 14.4627 23.0474 13.6719 22.2789L1.36161 10.2986C1.67045 10.0059 2.06156 9.81481 2.5 9.81481ZM0.904018 10.9479L13.2143 22.9028C14.2518 23.9108 15.7254 23.9096 16.7634 22.9028L29.096 10.9479C29.2159 11.2227 29.2857 11.5207 29.2857 11.8518V28.1481C29.2857 29.2836 28.4954 30.1852 27.5 30.1852H2.5C1.50456 30.1852 0.714286 29.2836 0.714286 28.1481V11.8518C0.714286 11.5207 0.784079 11.2227 0.904018 10.9479Z" fill="black"/>
</svg>
