<svg width="15" height="15" viewBox="0 0 15 15" fill="none" xmlns="http://www.w3.org/2000/svg">
<path d="M10.1043 9.17261C9.99165 9.17261 9.87897 9.21418 9.80384 9.28976C9.09432 9.96623 8.33055 10.3064 7.53339 10.3064H7.52922C6.16444 10.3026 5.10434 9.3011 5.09182 9.29354C5.01252 9.21796 4.90401 9.17261 4.78715 9.17261C2.14524 9.17261 0 11.459 0 14.2707C0 14.6713 0.33389 15.0001 0.742905 15.0001H14.3614C14.712 15.0001 15 14.7242 15 14.3841C14.9958 11.5119 12.8005 9.17261 10.1043 9.17261ZM0.830551 14.248C0.843072 11.9238 2.52087 10.0305 4.61603 9.93222C4.99165 10.2497 6.09349 11.0546 7.51252 11.0622C7.51669 11.0622 7.52504 11.0622 7.52922 11.0622C8.51002 11.0622 9.43239 10.6805 10.2755 9.93222C12.3915 10.0305 14.0943 11.9163 14.1611 14.2442H0.830551V14.248Z" fill="black"/>
<path d="M3.86895 6.29661C5.20451 9.02516 7.18281 9.1272 7.47913 9.1272C7.49166 9.1272 7.49583 9.1272 7.50835 9.1272C7.80468 9.1272 9.78297 9.02138 11.1185 6.29661C11.3397 6.18324 11.6068 5.90736 11.7696 5.26491C11.8489 4.96257 11.8614 4.65268 11.8072 4.36169C11.7529 4.07447 11.6528 3.89685 11.5359 3.79104C11.515 3.22795 11.3606 1.81832 10.3464 0.877315C9.70368 0.28021 8.83556 -0.00700514 7.79216 0.000553156C7.59182 0.0043323 7.39149 0.0043323 7.19115 0.000553156C6.1394 -0.0145634 5.27964 0.28021 4.6369 0.877315C3.62688 1.81832 3.46828 3.22795 3.44742 3.79104C3.33055 3.89685 3.23039 4.07447 3.17613 4.36169C3.12187 4.65268 3.13439 4.96635 3.21369 5.26869C3.38481 5.90736 3.65192 6.17946 3.86895 6.29661ZM4.00668 4.4864C4.0192 4.42971 4.02755 4.38814 4.0359 4.36169C4.07763 4.34279 4.11937 4.32012 4.15693 4.28989C4.24458 4.2143 4.29049 4.11227 4.28631 4.00267C4.28631 3.98755 4.23206 2.33607 5.24207 1.40262C5.71787 0.964236 6.3606 0.737487 7.18281 0.756383C7.39149 0.760162 7.60017 0.760162 7.80885 0.756383C8.61436 0.741266 9.27379 0.964236 9.74959 1.40262C10.7596 2.33607 10.7053 3.98755 10.7053 4.00267C10.7012 4.11227 10.7471 4.2143 10.8347 4.28989C10.8681 4.32012 10.9099 4.34657 10.9558 4.36169C10.9641 4.38814 10.9766 4.42971 10.985 4.4864C11.0225 4.67914 11.0142 4.89077 10.9599 5.09485C10.8639 5.4652 10.7554 5.59369 10.7179 5.63148C10.5885 5.65794 10.4758 5.7373 10.4215 5.85445C9.24875 8.37515 7.58348 8.37893 7.50835 8.37515C7.5 8.37515 7.48748 8.37515 7.47913 8.37515C7.41236 8.37515 5.73873 8.3827 4.56595 5.85445C4.51169 5.74108 4.40317 5.65794 4.26962 5.63148C4.23206 5.59369 4.12354 5.4652 4.02755 5.09862C3.98164 4.89077 3.97329 4.67914 4.00668 4.4864Z" fill="black"/>
</svg>
