<svg width="15" height="15" viewBox="0 0 15 15" fill="none" xmlns="http://www.w3.org/2000/svg">
<path d="M6.0041 2.35504e-05C4.4672 2.35504e-05 2.92971 0.586407 1.75807 1.75793C-0.585047 4.10087 -0.58636 7.90641 1.75615 10.2493C3.82379 12.3168 7.03141 12.559 9.36698 10.9774L9.97841 11.5888C9.82331 11.9374 9.88997 12.3629 10.1752 12.6487L12.2459 14.7213C12.6145 15.0898 13.2182 15.0943 13.5854 14.7264L14.7269 13.5863C15.0941 13.2191 15.0896 12.6161 14.7218 12.2476L12.6497 10.175C12.4657 9.99108 12.2228 9.89751 11.9799 9.89623C11.846 9.89559 11.712 9.92315 11.5883 9.9789L10.9782 9.36816C12.5606 7.03293 12.3177 3.82473 10.2501 1.75659C9.07855 0.585104 7.54163 -0.00063269 6.0041 2.35504e-05ZM6.0041 0.465921C7.42051 0.465921 8.83632 1.00617 9.91871 2.08793C12.0825 4.25156 12.0825 7.75309 9.91871 9.91737C7.75492 12.081 4.25312 12.081 2.08868 9.91737C1.00682 8.83559 0.465903 7.41923 0.466543 6.00306C0.466543 5.95884 0.466543 5.91462 0.468465 5.87041C0.501792 4.49896 1.04208 3.13782 2.0906 2.08931C3.17246 1.00753 4.58893 0.466021 6.00521 0.466021L6.0041 0.465921ZM6.0041 1.8098C4.92994 1.8098 3.85574 2.21931 3.038 3.03769C1.40176 4.67382 1.40048 7.33344 3.03736 8.96945C4.67361 10.6056 7.33458 10.6056 8.97088 8.96945C10.6071 7.33333 10.6071 4.67255 8.97088 3.03638C8.15244 2.218 7.0783 1.80977 6.00478 1.81041L6.0041 1.8098ZM6.0041 2.27506C6.95714 2.27506 7.91013 2.63908 8.63829 3.36773C10.0957 4.82505 10.0957 7.18016 8.63829 8.63751C7.18086 10.0948 4.82557 10.0948 3.36812 8.63751C1.91069 7.18019 1.91197 4.82574 3.37004 3.36839C4.09875 2.63973 5.05178 2.27508 6.00488 2.27508L6.0041 2.27506ZM10.6974 9.74816L11.214 10.2666L11.0653 10.4147L10.2661 11.2125L9.74949 10.696C9.92254 10.5576 10.0898 10.4089 10.25 10.2487C10.4103 10.0885 10.5596 9.9212 10.698 9.74817L10.6974 9.74816ZM11.9549 10.3621C12.0843 10.357 12.2164 10.4057 12.3176 10.5069L14.3903 12.5775C14.5813 12.7685 14.5813 13.0678 14.3955 13.2543L13.2559 14.3937C13.0701 14.5796 12.7708 14.5802 12.5791 14.3886L10.5064 12.318C10.3154 12.127 10.3148 11.8277 10.5013 11.6413L11.6652 10.4774C11.7485 10.4044 11.851 10.3659 11.9549 10.3615V10.3621Z" fill="black"/>
</svg>
