<svg width="15" height="15" viewBox="0 0 15 15" fill="none" xmlns="http://www.w3.org/2000/svg">
<path fill-rule="evenodd" clip-rule="evenodd" d="M0.257588 0.000129675C0.223629 0.000290737 0.190028 0.00859535 0.158704 0.0245694C0.127381 0.0405434 0.0989474 0.0638739 0.0750282 0.0932289C0.051109 0.122584 0.0321723 0.157389 0.0192993 0.195655C0.00642624 0.233922 -0.000130992 0.274902 1.98261e-06 0.316255C0.000268382 0.399344 0.0274925 0.478937 0.0757417 0.53769C0.123991 0.596443 0.189355 0.629593 0.257588 0.629917H2.67181L5.16786 9.75998C4.70656 9.95022 4.37288 10.4875 4.37288 11.1137C4.37288 11.8967 4.89458 12.5387 5.53555 12.5387H6.09365C5.93869 12.7957 5.84667 13.1127 5.84667 13.4544C5.84667 14.3029 6.4126 15 7.10682 15C7.80103 15 8.36646 14.3029 8.36646 13.4544C8.36646 13.1127 8.27492 12.7957 8.11999 12.5387H10.3105C10.1555 12.7957 10.0635 13.1127 10.0635 13.4544C10.0635 14.3029 10.6294 15 11.3236 15C12.0179 15 12.5833 14.3029 12.5833 13.4544C12.5833 13.1127 12.4917 12.7957 12.3368 12.5387H12.9252C12.9934 12.5383 13.0588 12.5052 13.1071 12.4464C13.1553 12.3877 13.1825 12.3081 13.1828 12.225C13.1829 12.1836 13.1764 12.1427 13.1635 12.1044C13.1506 12.0661 13.1317 12.0313 13.1078 12.002C13.0838 11.9726 13.0554 11.9493 13.0241 11.9333C12.9928 11.9173 12.9592 11.909 12.9252 11.9089H7.13915H7.07399H5.53555C5.17474 11.9089 4.89058 11.5618 4.89058 11.1137C4.89058 10.6655 5.17474 10.3166 5.53555 10.3166H12.9252C12.9504 10.3161 12.9754 10.3111 12.9994 10.3018C13.0056 10.2988 13.0117 10.2955 13.0176 10.2919C13.0348 10.284 13.0512 10.2739 13.0666 10.2618C13.0732 10.2562 13.0797 10.2503 13.0858 10.244C13.0991 10.2309 13.1113 10.2163 13.1222 10.2003C13.1277 10.1922 13.133 10.1838 13.1378 10.1751C13.148 10.1562 13.1565 10.1359 13.1631 10.1148C13.1652 10.11 13.1672 10.105 13.1692 10.1001L14.9869 3.44978C14.9997 3.40256 15.0032 3.35232 14.997 3.30315C14.9908 3.25399 14.9752 3.20731 14.9513 3.16694C14.9275 3.12656 14.8961 3.09363 14.8598 3.07086C14.8235 3.04808 14.7833 3.0361 14.7424 3.0359H3.8759L3.10567 0.216619C3.1039 0.212055 3.10205 0.207543 3.10011 0.203087C3.09486 0.186251 3.08844 0.169993 3.08092 0.154493C3.07699 0.146478 3.07278 0.138679 3.06829 0.131119C3.05968 0.116404 3.05005 0.102619 3.0395 0.0899158C3.03385 0.0832359 3.02795 0.0768738 3.02182 0.0708495C3.00922 0.0584671 2.99569 0.0475531 2.98142 0.0382514C2.97743 0.0356632 2.97339 0.0332027 2.9693 0.0308724C2.95141 0.0204906 2.93259 0.0126477 2.91323 0.0074979C2.91072 0.00681721 2.90819 0.00618236 2.90566 0.00559363C2.89034 0.00202657 2.87479 0.000154436 2.85919 0L0.257588 0.000129675ZM4.04762 3.66568H14.3833L12.7378 9.68618H5.69212L5.63909 9.49183L4.04762 3.66568ZM7.08763 12.5387H7.12601C7.5291 12.551 7.84927 12.9512 7.84927 13.4544C7.84927 13.9657 7.51892 14.3702 7.10682 14.3702C6.69472 14.3702 6.36386 13.9657 6.36386 13.4544C6.36386 12.9512 6.68454 12.551 7.08763 12.5387ZM11.3044 12.5387H11.3428C11.7459 12.551 12.0661 12.9512 12.0661 13.4544C12.0661 13.9657 11.7357 14.3702 11.3236 14.3702C10.9115 14.3702 10.5807 13.9657 10.5807 13.4544C10.5807 12.9512 10.9014 12.551 11.3044 12.5387Z" fill="black"/>
</svg>
