<svg width="40" height="40" viewBox="0 0 40 40" fill="none" xmlns="http://www.w3.org/2000/svg">
<path d="M25.6578 1.73693L27.6494 6.13988C28.1354 7.21423 29.0978 7.94663 30.2239 8.09902L34.8294 8.70668L33.9728 13.4973C33.7643 14.6634 34.1314 15.8463 34.9548 16.6615L38.3377 19.9894L34.9548 23.3388C34.1314 24.1539 33.7643 25.3366 33.9727 26.5028L34.8412 31.2765L30.2237 31.9012C29.0976 32.0535 28.1352 32.7859 27.6492 33.8603L25.6768 38.2566L21.5922 35.919C21.1054 35.6404 20.5549 35.4932 20 35.4932C19.4452 35.4932 18.8947 35.6404 18.4078 35.919L14.3422 38.2631L12.3506 33.86C11.8646 32.7857 10.9022 32.0534 9.7761 31.901L5.17059 31.2933L6.02717 26.5027C6.23566 25.3365 5.86858 24.1537 5.04522 23.3385L1.66229 20.0106L5.04537 16.6612C5.86868 15.846 6.23576 14.6632 6.02727 13.4972L5.15889 8.72353L9.77626 8.09881C10.9024 7.94646 11.8648 7.21412 12.3508 6.13976L14.3361 1.75085L18.4078 4.081C18.8947 4.35959 19.4452 4.50685 20.0001 4.50685C20.5549 4.50685 21.1054 4.3596 21.5922 4.08105L25.6578 1.73693ZM14.3316 0C13.7148 0 13.1199 0.36283 12.8362 0.99013L10.8445 5.39301C10.6037 5.92538 10.1207 6.29292 9.56263 6.36842L4.94527 6.99314C4.00365 7.12054 3.3579 8.05036 3.53256 9.02735L4.38904 13.8182C4.49239 14.3962 4.30822 14.9895 3.90015 15.3935L0.51712 18.7429C-0.172373 19.4255 -0.172373 20.5744 0.51712 21.2571L3.90004 24.6062C4.30817 25.0103 4.49229 25.6036 4.38894 26.1816L3.53236 30.9723C3.3577 31.9493 4.0034 32.8791 4.94502 33.0066L9.56243 33.6314C10.1204 33.7069 10.6034 34.0744 10.8443 34.6068L12.8359 39.0098C13.1197 39.6372 13.7144 39.9999 14.3313 39.9999C14.5986 39.9999 14.8702 39.9318 15.1223 39.7875L19.2073 37.4499C19.4543 37.3086 19.7271 37.2379 20 37.2379C20.2729 37.2379 20.5458 37.3086 20.7927 37.45L24.8774 39.7875C25.1296 39.9319 25.4011 40 25.6685 40C26.2853 40 26.8801 39.6372 27.1638 39.0099L29.1555 34.607C29.3963 34.0746 29.8794 33.7071 30.4374 33.6316L35.0548 33.0069C35.9964 32.8795 36.6421 31.9496 36.4674 30.9727L35.611 26.1818C35.5077 25.6038 35.6918 25.0105 36.0999 24.6065L39.4829 21.2571C40.1724 20.5745 40.1724 19.4256 39.4829 18.7429L36.1 15.3938C35.6919 14.9897 35.5077 14.3964 35.6111 13.8184L36.4676 9.0277C36.6424 8.05071 35.9967 7.12087 35.055 6.99345L30.4376 6.36863C29.8796 6.29312 29.3966 5.92558 29.1558 5.39321L27.1641 0.990188C26.8803 0.362792 26.2857 -7.49853e-06 25.6687 5.19987e-05C25.4014 7.78215e-05 25.1298 0.0682284 24.8777 0.212498L20.7927 2.55005C20.5458 2.6914 20.2729 2.76207 20.0001 2.76207C19.7272 2.76207 19.4543 2.69139 19.2073 2.55004L15.1226 0.212469C14.8704 0.0681325 14.599 0 14.3316 0Z" fill="black"/>
<path d="M14.4119 16.2533H13.5037V22.1368L9.7439 16.2533H8.77222V23.747H9.68042V17.8584L13.4402 23.747H14.4119V16.2533Z" fill="black"/>
<path d="M21.1985 16.2533H16.0227V23.747H21.3645V22.8627H16.97V20.312H20.9299V19.4328H16.97V17.1376H21.1985V16.2533Z" fill="black"/>
<path d="M31.2283 16.2533H30.2761L29.1531 21.0685C29.0066 21.6819 28.8878 22.2254 28.7966 22.6991C28.6827 21.871 28.4972 20.9867 28.24 20.0462L27.2146 16.2533H26.072L24.7097 21.3139C24.6772 21.4365 24.5697 21.8983 24.3875 22.6991C24.3028 22.1914 24.2019 21.6802 24.0847 21.1656L22.9958 16.2533H22.0242L23.9236 23.747H24.8904L26.4089 18.0373C26.474 17.7953 26.544 17.5022 26.6189 17.1581C26.6417 17.2671 26.7166 17.5602 26.8435 18.0373L28.3523 23.747H29.2654L31.2283 16.2533Z" fill="black"/>
</svg>
