<svg width="20" height="40" viewBox="0 0 20 40" fill="none" xmlns="http://www.w3.org/2000/svg">
<path d="M6.43187 4.57783e-05C5.11764 0.0357616 4.18536 1.20188 4.18536 2.47338C4.18536 3.54127 4.84344 4.53061 5.83241 4.84135L0.874271 16.1259C0.359916 17.2956 0.178379 18.8689 0.0819467 20.5404C-0.0126026 22.2119 0.000633278 23.9691 0.000633278 25.3781V37.2785C0.000633278 38.7767 1.32058 40 2.91466 40H16.9366C18.612 40 19.9981 38.7214 19.9981 37.1463V25.3762C19.9981 23.9672 20.0189 22.21 19.9225 20.5385C19.8279 18.867 19.6388 17.2937 19.1245 16.1241L14.1683 4.8413C15.1611 4.53236 15.8192 3.54305 15.8192 2.47334C15.8192 1.18044 14.8566 0 13.5084 0H6.49087H6.42846L6.43187 4.57783e-05ZM6.49427 1.43224H13.5118C13.8087 1.43224 14.1415 1.68047 14.2625 2.1162H5.74528C5.8663 1.68226 6.19737 1.43224 6.49427 1.43224ZM5.74542 2.8323H14.2626C14.1416 3.26625 13.8088 3.51626 13.5119 3.51626H6.49442C6.19753 3.51626 5.86644 3.26804 5.74542 2.8323ZM7.43221 4.94133H12.5738L12.9936 5.89492H7.01259L7.43221 4.94133ZM6.7004 6.60924H13.3074L17.7304 16.6686C18.0992 17.5062 18.3205 19.0098 18.4112 20.6188C18.5038 22.2278 18.4868 23.96 18.4868 25.3797V36.9249H15.0603V36.9231C14.8504 36.9231 14.6821 37.082 14.6821 37.2784C14.6821 37.4767 14.8504 37.6356 15.0603 37.6356H18.3942C18.1824 38.1838 17.6188 38.5731 16.94 38.5731H2.91807C2.26565 38.5731 1.73619 38.1767 1.57169 37.6356H12.3976H12.3938C12.4959 37.6374 12.5943 37.5999 12.6661 37.5338C12.738 37.4659 12.7796 37.3749 12.7796 37.2784C12.7777 37.1838 12.738 37.0927 12.6661 37.0249C12.5943 36.9588 12.4959 36.9213 12.3938 36.9231H1.51466V25.3779C1.51466 23.9582 1.49953 22.226 1.5903 20.617C1.68296 19.008 1.90988 17.5062 2.27675 16.6668L6.7004 6.60924ZM6.94434 9.7808V9.77902C6.77983 9.7683 6.62665 9.85938 6.56614 10.004L5.43722 12.5649C5.3578 12.747 5.44857 12.9542 5.64145 13.0309C5.83434 13.1059 6.05369 13.0184 6.13499 12.8381L7.2658 10.2719L7.26391 10.2701C7.34522 10.0897 7.25256 9.88081 7.06157 9.80581C7.02375 9.79153 6.98405 9.78259 6.94434 9.7808ZM4.98902 14.0506C4.95687 14.0542 4.92473 14.0613 4.89447 14.072C4.80181 14.1078 4.72617 14.1756 4.68646 14.2649L3.43463 17.1186C3.30037 17.4258 3.1888 17.9008 3.08479 18.5222C2.98079 19.1437 2.89191 19.8991 2.84652 20.683C2.75765 22.2402 2.77088 23.9492 2.77088 25.3781V29.305H2.77277C2.77277 29.5015 2.94107 29.6604 3.15097 29.6604C3.35899 29.6604 3.52728 29.5015 3.52918 29.305V25.3781C3.52918 23.9441 3.51783 22.2422 3.60482 20.7155C3.64831 19.9584 3.73151 19.2315 3.83174 18.6368C3.93196 18.0422 4.05677 17.5636 4.13241 17.3903L5.38995 14.5384C5.42777 14.4509 5.42777 14.3527 5.38806 14.2652C5.34835 14.1759 5.2746 14.108 5.18005 14.0723C5.11953 14.0491 5.05331 14.0417 4.98902 14.0506Z" fill="black"/>
</svg>
