<svg width="25" height="40" viewBox="0 0 25 40" fill="none" xmlns="http://www.w3.org/2000/svg">
<path d="M4.8376 39.9999C3.86888 39.9999 2.73751 39.1297 2.73466 36.6833C2.73038 33.2667 2.71468 28.0876 2.69471 23.3606C2.41793 23.5029 2.11404 23.5841 1.79732 23.5892C1.79589 23.5892 1.79589 23.5892 1.79589 23.5892C1.14104 23.5892 0.760111 23.2912 0.550387 23.0407C0.0596041 22.4565 -0.000317067 21.5948 0.00110963 20.9108C0.00538971 19.746 0.00253632 18.5812 0.00110963 17.4163C-0.000317067 15.5963 -0.00317037 13.7797 0.01395 11.9613C0.0453373 8.67174 1.52625 6.91943 4.29261 6.89912L4.59364 6.89742C6.20723 6.88557 7.8194 6.87033 9.42443 6.90589C11.8113 6.95837 13.3022 8.58878 13.4106 11.2655C13.5519 14.7159 13.5019 18.1697 13.4277 21.3882C13.4063 22.2923 12.6844 23.6349 11.73 23.6349C11.3547 23.6349 11.038 23.5943 10.7712 23.5215L10.7741 36.4818C10.7784 36.7798 10.7812 37.0777 10.7584 37.3723C10.6428 38.979 9.80678 39.9796 8.57983 39.9796C7.81654 39.9593 7.16312 39.6342 6.708 39.1128C6.29997 39.5987 5.73928 39.9051 5.06302 39.9864C4.98598 39.9965 4.91179 39.9999 4.8376 39.9999ZM4.04294 12.0595C4.06148 12.4591 4.08288 15.3271 4.10999 20.5874L4.11142 20.8685C4.1371 26.1965 4.1585 32.6623 4.16278 36.6816C4.16278 36.9541 4.19559 38.3086 4.83903 38.3086L4.91893 38.3035C5.65653 38.2121 6.03175 37.6974 6.03745 36.7662C6.03745 36.7628 6.03745 36.7611 6.03745 36.7577C6.04316 36.3023 6.35275 35.9129 6.73368 35.9011C6.73511 35.9011 6.73511 35.9011 6.73511 35.9011C6.73654 35.9011 6.73796 35.9011 6.73939 35.9011C6.74082 35.9011 6.74367 35.9011 6.74652 35.9011C6.74938 35.9011 6.75223 35.9011 6.75508 35.9011H6.75794C6.75794 35.9011 6.75936 35.9011 6.76079 35.9011C6.76222 35.9011 6.76222 35.9011 6.76222 35.9011H6.76507C6.7665 35.9011 6.7665 35.9011 6.76792 35.9011H6.77078C6.77078 35.9011 6.77078 35.9011 6.7722 35.9011C6.77363 35.9011 6.77506 35.9011 6.77506 35.9011C6.77506 35.9011 6.77648 35.9011 6.77791 35.9011H6.78076H6.78219C6.78362 35.9011 6.78362 35.9028 6.78504 35.9028C7.11318 35.9214 7.38568 36.1872 7.44988 36.5546C7.44988 36.5563 7.44988 36.5563 7.44988 36.558C7.44988 36.558 7.44988 36.5597 7.44988 36.5614C7.44988 36.563 7.45131 36.563 7.45131 36.563C7.45844 36.6105 7.46272 36.6612 7.46415 36.712C7.46415 36.7154 7.46415 36.7171 7.46415 36.7205C7.46415 36.7222 7.46415 36.7239 7.46415 36.7256V37.2318C7.46272 37.9056 8.00915 38.273 8.54986 38.2883C8.73676 38.2476 9.26179 38.2866 9.33883 37.225C9.35737 36.9863 9.35167 36.7476 9.34881 36.5089L9.34596 36.1804V21.3781C9.34596 20.9193 9.65413 20.5434 10.0408 20.5316C10.4431 20.5383 10.7513 20.8769 10.7712 21.3341C10.7883 21.7489 10.7969 21.9436 11.7314 21.9436C11.7956 21.8945 11.9911 21.5203 12.0025 21.3391C12.0767 18.1596 12.1266 14.743 11.9882 11.3518C11.914 9.53858 11.0666 8.63788 9.4016 8.60232C7.80228 8.56338 6.20438 8.57862 4.60363 8.59047L4.30117 8.59216C2.32092 8.6074 1.4649 9.61985 1.44065 11.9817C1.4221 13.7915 1.42495 15.6031 1.4278 17.413C1.42923 18.5812 1.43208 19.7494 1.4278 20.9176C1.42495 21.6303 1.5291 21.8081 1.56049 21.8471C1.58759 21.8792 1.66178 21.8962 1.76165 21.8962C2.30094 21.886 2.67331 21.3662 2.6833 20.9006L2.68187 20.5959C2.67474 19.6952 2.66047 18.444 2.64763 17.1793C2.61196 13.9693 2.59627 12.3931 2.61909 12.0409C2.62765 11.8987 2.66618 11.7649 2.7261 11.6515C2.75606 11.599 2.78744 11.5482 2.82454 11.5042C2.82454 11.5042 2.82454 11.5025 2.82597 11.5025L2.82739 11.5008C2.82739 11.5008 2.82739 11.5008 2.82882 11.4991C2.94581 11.362 3.10132 11.2723 3.2768 11.2553C3.27823 11.2553 3.27965 11.2553 3.27965 11.2553C3.28108 11.2553 3.28108 11.2553 3.28108 11.2553H3.28393C3.30105 11.2536 3.31247 11.2503 3.33387 11.2536C3.33815 11.2536 3.341 11.2536 3.34386 11.2536C3.34528 11.2536 3.34671 11.2536 3.34671 11.2536C3.52647 11.2587 3.69054 11.3434 3.81324 11.4788C3.85889 11.5296 3.90169 11.5872 3.93451 11.6515C3.99728 11.7717 4.03723 11.9105 4.04294 12.0595Z" fill="black"/>
<path d="M20.1003 39.9848C19.3627 39.9848 18.7093 39.6682 18.2528 39.1603C17.8219 39.6834 17.2241 39.9712 16.5094 39.9712C15.0313 39.9628 14.2923 38.8352 14.2994 36.6173L14.3122 33.0467C14.3351 26.6876 14.3565 20.1117 14.3037 13.6494C14.2951 12.4778 14.1168 11.2791 13.9299 10.011C13.8372 9.38289 13.7416 8.74123 13.6631 8.07924C13.6089 7.62381 13.8714 7.20224 14.2523 7.12606C14.5619 7.03971 14.9814 6.92289 15.4236 6.91612C17.3597 6.88564 19.2985 6.85686 21.2331 6.9212C23.3632 6.99231 24.8027 8.56007 24.8983 10.9151C25.0467 14.5382 25.0039 18.1292 24.9497 21.4967C24.9354 22.3584 24.2449 23.6384 23.3161 23.6384C22.9095 23.6384 22.5528 23.5944 22.2489 23.5029C22.2518 24.5966 22.2575 25.9562 22.2646 27.3495C22.2775 30.0923 22.2932 33.3243 22.2932 36.2042V36.426C22.2946 36.7358 22.2946 37.0456 22.2846 37.3555C22.2333 38.9063 21.4457 39.9137 20.2316 39.9814C20.223 39.9814 20.1118 39.9848 20.1003 39.9848ZM19.0118 36.6444V37.3605C19.0118 37.9362 19.5767 38.2917 20.1018 38.2917V39.1382L20.1688 38.29C20.3828 38.2765 20.8322 38.2528 20.8622 37.2877C20.8722 37.0016 20.8722 36.7138 20.8708 36.4277V36.2025C20.8708 33.326 20.8551 30.0974 20.8422 27.3563C20.8237 23.5622 20.8165 21.9233 20.8579 21.1631C20.8565 21.1462 20.8565 21.131 20.8551 21.1225L20.8608 21.1208C20.8907 20.5824 20.9507 20.513 21.0505 20.3911C21.1846 20.232 21.3672 20.1422 21.557 20.1422C22.2475 20.1422 22.2789 20.9447 22.296 21.3748C22.3074 21.6998 22.316 21.9436 23.3218 21.9436C23.3518 21.903 23.513 21.5999 23.5301 21.451C23.5829 18.1241 23.6243 14.5653 23.4802 10.9964C23.4188 9.5268 22.5871 8.65657 21.1989 8.61255C19.28 8.54822 17.3639 8.577 15.4465 8.60747C15.358 8.60917 15.2696 8.61763 15.1811 8.63118C15.231 8.99857 15.2852 9.35919 15.3366 9.71642C15.5363 11.0556 15.7232 12.3203 15.7318 13.6324C15.7846 20.1067 15.7618 26.6876 15.7404 33.0534L15.7275 36.6241C15.7218 38.2765 16.1184 38.2782 16.5022 38.2799C17.3896 38.2799 17.5808 37.4215 17.5851 36.7003C17.5851 36.6884 17.5851 36.6749 17.5865 36.6647C17.5865 36.6647 17.5865 36.6647 17.5865 36.663C17.5865 36.6613 17.5865 36.6596 17.5865 36.6596C17.6079 36.2211 17.9075 35.847 18.2756 35.8317H18.2785C18.2785 35.8317 18.2799 35.8317 18.2813 35.8317C18.2827 35.8317 18.2842 35.8317 18.2842 35.8317H18.2856C18.287 35.8317 18.2899 35.8317 18.2913 35.8317H18.2941C18.2956 35.83 18.297 35.83 18.2984 35.83C18.3056 35.8317 18.3155 35.8317 18.3241 35.8317C18.3255 35.8317 18.3255 35.8317 18.327 35.8317C18.3284 35.8317 18.3298 35.8317 18.3312 35.8317H18.3341C18.3341 35.8317 18.3341 35.8317 18.3355 35.8317H18.3384C18.3384 35.8317 18.3398 35.8317 18.3412 35.8317H18.3441H18.3455C18.3455 35.8317 18.3469 35.8351 18.3469 35.8334H18.3498C18.3498 35.8334 18.3512 35.8334 18.3526 35.8334H18.3555C18.3569 35.8334 18.3583 35.8334 18.3598 35.8334C18.7236 35.8673 19.0103 36.1991 19.0132 36.641C19.0118 36.6376 19.0118 36.641 19.0118 36.6444Z" fill="black"/>
<path d="M18.297 7.91164H18.2899C17.4068 7.90994 16.5351 7.46129 15.8959 6.68418C15.2682 5.92061 14.92 4.8997 14.94 3.88218C14.98 1.82512 16.4923 0.0474213 18.24 0.00170898H18.2414C20.1132 0.00170898 21.6426 1.80142 21.6555 3.93466C21.6612 4.99451 21.3188 5.99003 20.691 6.73666C20.0562 7.49515 19.2058 7.91164 18.297 7.91164ZM18.3113 1.69476C17.2798 1.72185 16.3895 2.76138 16.3681 3.92112C16.3567 4.4866 16.5579 5.06393 16.9188 5.50412C17.2912 5.95786 17.792 6.2169 18.2942 6.21859L18.2985 7.06511V6.21859C18.8249 6.21859 19.3157 5.97818 19.6809 5.54475C20.0376 5.11811 20.2331 4.55093 20.2302 3.94652C20.2202 2.72583 19.3428 1.69476 18.3113 1.69476Z" fill="black"/>
<path d="M6.75358 7.91162C4.9374 7.91162 3.43937 6.16439 3.41654 4.01761C3.40512 2.94591 3.74468 1.93685 4.37385 1.17836C4.99874 0.424956 5.83479 0.00507915 6.72932 0C7.63242 0 8.46418 0.409718 9.08765 1.15635C9.7211 1.91145 10.0692 2.91882 10.0649 3.9939C10.0564 6.10006 8.60971 7.85745 6.83918 7.90993C6.83205 7.90993 6.75928 7.91162 6.75358 7.91162ZM6.7493 1.69305C6.22713 1.69474 5.74918 1.93516 5.39251 2.36519C5.03156 2.802 4.8361 3.38102 4.84323 3.99898C4.85607 5.22137 5.71209 6.21857 6.75358 6.21857V7.0651L6.80209 6.21688C7.80933 6.1881 8.63253 5.18581 8.63824 3.98375C8.64109 3.36409 8.44278 2.78337 8.07898 2.34826C7.72373 1.925 7.25149 1.69305 6.7493 1.69305Z" fill="black"/>
<path d="M6.74924 37.5705C6.35547 37.5705 6.03589 37.1912 6.03589 36.724V24.2326C6.03589 23.7654 6.35547 23.3861 6.74924 23.3861C7.143 23.3861 7.46258 23.7654 7.46258 24.2326V36.724C7.46258 37.1912 7.143 37.5705 6.74924 37.5705Z" fill="black"/>
<path d="M18.2983 37.4892C17.9045 37.4892 17.585 37.11 17.585 36.6427V24.2326C17.585 23.7654 17.9045 23.3861 18.2983 23.3861C18.6921 23.3861 19.0117 23.7654 19.0117 24.2326V36.6427C19.0117 37.11 18.6921 37.4892 18.2983 37.4892Z" fill="black"/>
<path d="M10.0566 22.223C9.66284 22.223 9.34326 21.8437 9.34326 21.3764V12.0647C9.34326 11.5974 9.66284 11.2181 10.0566 11.2181C10.4504 11.2181 10.77 11.5974 10.77 12.0647V21.3764C10.77 21.8437 10.4518 22.223 10.0566 22.223Z" fill="black"/>
<path d="M21.5539 21.842C21.1602 21.842 20.8406 21.4628 20.8406 20.9955V12.0647C20.8406 11.5974 21.1602 11.2181 21.5539 11.2181C21.9477 11.2181 22.2673 11.5974 22.2673 12.0647V20.9955C22.2673 21.4628 21.9477 21.842 21.5539 21.842Z" fill="black"/>
</svg>
