<svg width="30" height="40" viewBox="0 0 30 40" fill="none" xmlns="http://www.w3.org/2000/svg">
<path d="M25.5487 25.9816L24.3176 11.7886C24.2913 11.4755 23.9783 11.2328 23.6048 11.2328H19.2908V5.0728C19.2908 2.27617 16.5762 0 13.2407 0C9.90524 0 7.19063 2.27611 7.19063 5.0728V11.2328H2.87668C2.50316 11.2328 2.19015 11.4755 2.16382 11.7886L0.00159936 36.7292C-0.0115528 36.8946 0.0568391 37.0578 0.190993 37.1813C0.325148 37.3026 0.517175 37.3732 0.714455 37.3732H14.2222C15.8689 38.9789 18.3047 40 21.0222 40C25.9728 40 30 36.6233 30 32.4724C30 29.7067 28.206 27.2916 25.5492 25.9838L25.5487 25.9816ZM8.61871 5.07302C8.61871 2.93806 10.6915 1.20004 13.2378 1.20004C15.7842 1.20004 17.857 2.93801 17.857 5.07302V11.2331H8.61588V5.07302H8.61871ZM3.53925 12.4306H7.19036V16.0455C7.19036 16.3763 7.51127 16.6454 7.90585 16.6454C8.30042 16.6454 8.62134 16.3763 8.62134 16.0455V12.4306H17.8624V16.0455C17.8624 16.3763 18.1833 16.6454 18.5779 16.6454C18.9725 16.6454 19.2934 16.3763 19.2934 16.0455V12.4306H22.9445L24.0677 25.3882C23.9994 25.3683 23.9283 25.3529 23.8599 25.333C23.7468 25.3021 23.6337 25.2713 23.518 25.2448C23.368 25.2095 23.2155 25.1764 23.0629 25.1478C22.9419 25.1235 22.8209 25.0992 22.6973 25.0794C22.5316 25.0529 22.3632 25.0331 22.1975 25.0154C22.0896 25.0044 21.9818 24.989 21.8713 24.9801C21.5898 24.9581 21.3084 24.9448 21.0269 24.9448C16.1895 24.9448 12.2411 28.1738 12.0646 32.1946H1.83229L3.54738 12.4328L3.53925 12.4306ZM1.47958 36.1736L1.72159 33.3924H12.1095C12.2515 34.3761 12.6172 35.3156 13.1985 36.1736H1.47958ZM21.019 38.8004C17.8993 38.8004 15.2135 37.2036 14.0668 34.934C14.0668 34.9318 14.0642 34.9296 14.0642 34.9274C13.9747 34.751 13.8958 34.5701 13.8274 34.3848L13.7959 34.2988C13.738 34.14 13.6906 33.979 13.6486 33.8158C13.638 33.7717 13.6249 33.7276 13.6144 33.6835C13.5802 33.5313 13.5512 33.3769 13.5302 33.2203C13.5223 33.1718 13.5144 33.1233 13.5091 33.0747C13.4855 32.874 13.4723 32.6733 13.4723 32.4682C13.4723 28.979 16.8577 26.1382 21.0218 26.1382C21.2533 26.1382 21.4795 26.1492 21.7057 26.1669C21.7531 26.1713 21.8004 26.1735 21.8504 26.1779C22.0608 26.1978 22.2686 26.2242 22.4764 26.2573C22.5291 26.2661 22.5843 26.2772 22.6369 26.286C22.8421 26.3235 23.0446 26.3654 23.2419 26.4161C23.2498 26.4183 23.2603 26.4205 23.2682 26.4227C23.4865 26.4801 23.6996 26.5462 23.9074 26.619C23.9337 26.6279 23.9627 26.6389 23.989 26.6477C26.6799 27.6159 28.5686 29.859 28.5686 32.4661C28.5686 35.9554 25.1832 38.7961 21.0191 38.7961L21.019 38.8004ZM25.4619 29.5942L17.5865 36.1975C17.447 36.3144 17.2629 36.3739 17.0814 36.3739C16.8973 36.3739 16.7158 36.3144 16.5764 36.1975C16.2975 35.9637 16.2975 35.5844 16.5764 35.3505L24.4518 28.7473C24.7306 28.5135 25.183 28.5135 25.4619 28.7473C25.7407 28.9811 25.7407 29.3604 25.4619 29.5942ZM18.8463 32.146C19.4302 32.146 20.0142 31.9585 20.4587 31.5858C21.3478 30.8403 21.3478 29.625 20.4587 28.8796C19.5696 28.1341 18.1202 28.1341 17.2311 28.8796C16.342 29.625 16.342 30.8403 17.2311 31.5858C17.6757 31.9585 18.2596 32.146 18.8436 32.146H18.8463ZM18.2439 29.7288C18.4096 29.5898 18.6279 29.5192 18.8463 29.5192C19.0646 29.5192 19.2829 29.5898 19.4486 29.7288C19.6091 29.8633 19.6985 30.0441 19.6985 30.2338C19.6985 30.4257 19.6091 30.6044 19.4486 30.7389C19.1172 31.0168 18.5753 31.0168 18.2439 30.7389C18.0834 30.6044 17.994 30.4235 17.994 30.2338C17.994 30.0419 18.0834 29.8633 18.2439 29.7288ZM25.3011 32.9401C24.8697 32.5783 24.2963 32.3798 23.6887 32.3798C23.0784 32.3798 22.505 32.5783 22.0762 32.9401C21.1871 33.6855 21.1871 34.9008 22.0762 35.6463C22.5076 36.008 23.0811 36.2065 23.6887 36.2065C24.2989 36.2065 24.8724 36.008 25.3011 35.6463C25.7325 35.2846 25.9693 34.8038 25.9693 34.2943C25.9693 33.7826 25.7325 33.3018 25.3011 32.9423V32.9401ZM24.291 34.7994C23.9701 35.0706 23.4072 35.0684 23.0862 34.7994C22.7548 34.5215 22.7548 34.0671 23.0862 33.7892C23.2467 33.6546 23.4624 33.5797 23.6886 33.5797C23.9148 33.5797 24.1305 33.6546 24.291 33.7892C24.4515 33.9237 24.5409 34.1046 24.5409 34.2943C24.5409 34.4861 24.4515 34.6648 24.291 34.7994Z" fill="black"/>
</svg>
