<svg width="30" height="40" viewBox="0 0 30 40" fill="none" xmlns="http://www.w3.org/2000/svg">
<path fill-rule="evenodd" clip-rule="evenodd" d="M15.8686 18.9268L19.6531 28.294H28.7956L26.3169 22.007C22.8336 20.9803 19.3518 19.9534 15.8686 18.9268ZM27.0757 29.5057V35.5003C27.0757 35.7963 26.917 36.0409 26.7074 36.0955L15.1184 39.9789C15.0391 40.007 14.9634 40.007 14.8841 39.9789L3.29383 36.0955C3.08427 36.0409 2.92554 35.7962 2.92554 35.5003V29.5057H0.454226C0.114473 29.5057 -0.106241 29.0197 0.0524778 28.6179L2.97887 21.1967C3.04086 21.0396 3.15247 20.9272 3.28266 20.8892L14.8628 17.4752C14.9706 17.4372 15.0302 17.4372 15.138 17.4752L16.9559 18.0109C17.4122 14.9507 19.4334 12.704 21.8092 12.704C25.0219 12.704 27.3716 16.7181 26.619 20.8596C26.8 20.9125 26.9277 20.9605 27.0207 21.1969L29.9471 28.6182C30.1083 29.0265 29.8801 29.506 29.5454 29.506L27.0757 29.5057ZM14.5455 38.6182V20.4525L11.0315 29.1502C10.9596 29.3602 10.8009 29.5057 10.6173 29.5057H3.8334L3.83464 35.0292L14.5455 38.6182ZM15.4544 20.4525L18.9685 29.1502C19.0404 29.3602 19.1991 29.5057 19.3826 29.5057H26.1653V35.0292L15.4544 38.6184L15.4544 20.4525ZM17.9183 0.535852L22.438 6.56176C23.1795 7.55037 22.8484 9.24828 21.8242 9.61361L15.6491 11.819C14.631 12.1827 13.7011 10.9444 13.9739 9.5855L15.628 1.35247C15.9045 -0.0114658 17.1768 -0.452764 17.9183 0.535852ZM21.7958 7.42006L17.2761 1.39246C17.0194 1.0519 16.5979 1.21391 16.5073 1.6669L14.8532 9.89994C14.7614 10.3595 15.0714 10.7745 15.4161 10.6505L21.5912 8.44509C21.9297 8.32276 22.0525 7.76063 21.7958 7.42006ZM14.1313 18.9268L3.68443 22.0067L1.20445 28.2937H10.347L14.1313 18.9268ZM7.84317 6.96552C6.68503 6.07441 5.19581 6.60676 4.52881 8.14924L3.04577 11.5731C2.34891 13.1188 2.76182 15.1771 3.94599 16.0517L6.48549 18.0058C7.64486 18.9349 9.18866 18.3844 9.84461 16.8055L11.3264 13.3834C11.9948 11.8393 11.5955 9.85375 10.4386 8.96277L7.84317 6.96552ZM9.98463 10.0108L7.38933 8.01364C6.66767 7.45815 5.73021 7.7921 5.31358 8.75594L3.81442 12.2162C3.39654 13.18 3.65446 14.4397 4.37241 14.9837L6.96771 16.9808C7.69061 17.5379 8.63549 17.1957 9.04346 16.2385L10.5426 12.7783C10.958 11.8161 10.7075 10.5679 9.98463 10.0108ZM25.7324 20.5982L17.8399 18.2721C18.2045 15.7658 19.8586 13.9158 21.8092 13.9158C24.4454 13.9158 26.3574 17.2207 25.7324 20.5982Z" fill="black"/>
</svg>
