<svg width="30" height="40" viewBox="0 0 30 40" fill="none" xmlns="http://www.w3.org/2000/svg">
<path d="M17.9092 0.00596825C16.595 0.00596825 15.5385 1.15993 14.8324 2.76491C14.168 4.27422 13.7632 6.26389 13.7178 8.45874C13.5835 8.51927 13.4492 8.58371 13.3185 8.66376L6.05015 13.182C5.38033 13.5959 4.89384 14.2813 4.68872 15.0857L0.0507991 33.7208C-0.163399 34.5897 0.31945 35.4957 1.12904 35.726L15.7615 39.9455C16.542 40.1701 17.3552 39.68 17.5966 38.856H28.4752C29.3121 38.856 30 38.1159 30 37.2159V17.9205C30 17.0906 29.6932 16.296 29.1505 15.7063L23.2112 9.31767C22.8899 8.97207 22.5087 8.70845 22.0966 8.53275C22.0603 6.30296 21.6501 4.284 20.9766 2.75894C20.2705 1.15396 19.2249 0 17.9053 0L17.9092 0.00596825ZM17.9092 1.17553C18.6117 1.17553 19.3868 1.87452 20.0058 3.27061C20.5685 4.53979 20.9497 6.31462 21.015 8.29464H20.9134C20.0493 8.29464 19.2125 8.66953 18.599 9.32364L17.8693 10.1086L17.7803 9.94454C17.3483 9.14008 16.6331 8.55435 15.7963 8.31027C15.4713 8.2146 15.1355 8.17945 14.807 8.19507C14.8814 6.25619 15.2572 4.51645 15.8108 3.26681C16.4244 1.87267 17.2049 1.17173 17.9074 1.17173L17.9092 1.17553ZM14.8778 9.35263C15.092 9.35263 15.3062 9.38192 15.5186 9.43269C16.0758 9.5928 16.5496 9.98723 16.8382 10.5281L17.0706 10.9576L16.4243 11.6527C16.0994 11.2681 15.6674 10.9732 15.1646 10.8288C14.9322 10.7643 14.6908 10.7331 14.4585 10.7331H14.3841H14.3278C13.2459 10.8131 12.2693 11.6234 11.9771 12.8126C11.7175 13.8631 12.046 14.937 12.7431 15.6223L12.6632 15.7082C12.1186 16.294 11.8082 17.0926 11.8082 17.9224V37.2178C11.8082 37.3525 11.8355 37.4833 11.8591 37.6122L1.41266 34.5975C1.17123 34.5272 1.03146 34.2773 1.09681 34.0175L5.73835 15.3785C5.8636 14.8728 6.17038 14.4491 6.5933 14.1894L13.8649 9.67117C14.0083 9.58135 14.1626 9.51106 14.3205 9.46029H14.3859C14.4131 9.45053 14.4458 9.44077 14.4748 9.431C14.6092 9.40171 14.7435 9.37633 14.8833 9.37048L14.8687 9.36071L14.8778 9.35263ZM20.9063 9.45221H21.008C20.9807 9.94621 20.9571 10.4226 20.9063 10.8873C19.4705 10.8873 18.2942 12.1526 18.2906 13.6971C18.2906 15.2415 19.4705 16.5107 20.9063 16.5107C22.3421 16.5107 23.5184 15.2415 23.5184 13.6971C23.5184 12.5568 22.8777 11.5727 21.9664 11.1334C22.0173 10.7077 22.0554 10.2684 22.0735 9.81931C22.2042 9.90912 22.3295 10.0146 22.4402 10.1395L28.3832 16.5322C28.7263 16.9012 28.9169 17.3972 28.9169 17.9223V37.2177C28.9169 37.4832 28.7208 37.6883 28.4758 37.6883H13.3257C13.0788 37.6883 12.8846 37.4832 12.8846 37.2177V17.9223C12.8846 17.403 13.0806 16.9031 13.4237 16.5322L15.3987 14.4078C15.3987 14.4078 15.4169 14.3883 15.4259 14.3785L19.3486 10.159C19.7571 9.7197 20.3143 9.46978 20.8952 9.46978L20.9043 9.46001L20.9063 9.45221ZM13.9684 11.9866C14.0791 12.6407 14.2279 13.2558 14.4058 13.8259L13.5091 14.7905C13.0716 14.3902 12.8538 13.7518 13.0172 13.1054C13.1515 12.5607 13.5182 12.1565 13.9702 11.9808L13.9684 11.9866ZM15.0793 12.0179C15.3116 12.1233 15.5113 12.2776 15.6656 12.4787L15.2753 12.8985C15.2009 12.6193 15.141 12.3244 15.0793 12.0179ZM20.7244 12.0764C20.5102 13.1718 20.1944 14.1305 19.8186 14.8647C19.5445 14.564 19.3721 14.1539 19.3721 13.701C19.3721 12.8516 19.9584 12.1721 20.7244 12.0764ZM21.7791 12.3478C22.1784 12.6427 22.4344 13.1367 22.4344 13.7029C22.4344 14.6167 21.7555 15.3528 20.9059 15.3528H20.8079C21.2254 14.5074 21.5558 13.494 21.779 12.3595L21.7791 12.3478ZM17.8564 23.0047C17.4243 23.0047 17.0377 23.1199 16.7037 23.3503C16.3696 23.5807 16.1083 23.8951 15.9231 24.3052C15.738 24.7152 15.6436 25.1955 15.6436 25.7442C15.6436 26.2948 15.7362 26.7732 15.9231 27.1832C16.1083 27.5932 16.3697 27.9134 16.7037 28.138C17.0377 28.3684 17.4243 28.4778 17.8564 28.4778C18.2884 28.4778 18.6968 28.3626 19.0235 28.138C19.3575 27.9076 19.6189 27.5874 19.8041 27.1832C19.9892 26.7732 20.0836 26.2929 20.0836 25.7442C20.0836 25.1935 19.9911 24.7054 19.8041 24.3052C19.6189 23.8951 19.3575 23.5808 19.0235 23.3503C18.6986 23.1199 18.3083 23.0047 17.8564 23.0047ZM23.4234 23.1043L17.0845 33.0859H18.386L24.725 23.1043H23.4234ZM17.8564 24.0044C18.2194 24.0044 18.4971 24.1587 18.6932 24.4594C18.8929 24.7542 19 25.1838 19 25.7442C19 26.3046 18.8983 26.738 18.6932 27.0387C18.4971 27.3335 18.2194 27.4839 17.8564 27.4839C17.4933 27.4839 17.2338 27.3296 17.0195 27.0289C16.8144 26.7243 16.7128 26.2987 16.7128 25.7441C16.7128 25.1896 16.8144 24.764 17.0195 24.4594C17.2337 24.1548 17.5078 24.0044 17.8564 24.0044ZM23.9393 27.7085C23.5072 27.7085 23.1206 27.8237 22.7866 28.0541C22.4526 28.2845 22.1912 28.5988 22.006 29.0089C21.8209 29.4189 21.7265 29.8992 21.7265 30.4479C21.7265 30.9986 21.8191 31.4769 22.006 31.8869C22.1912 32.297 22.4526 32.6113 22.7866 32.8418C23.1206 33.0722 23.5072 33.1874 23.9393 33.1874C24.3713 33.1874 24.7797 33.0722 25.1064 32.8418C25.4404 32.6114 25.7018 32.297 25.887 31.8869C26.0721 31.4769 26.1665 30.9966 26.1665 30.4479C26.1665 29.8973 26.074 29.4189 25.887 29.0089C25.7018 28.5989 25.4404 28.2786 25.1064 28.0541C24.7815 27.8237 24.3912 27.7085 23.9393 27.7085ZM23.9393 28.7082C24.2932 28.7082 24.571 28.8624 24.7761 29.1631C24.9758 29.4677 25.0829 29.8933 25.0829 30.4479C25.0829 31.0024 24.9812 31.4281 24.7761 31.7327C24.5764 32.0373 24.2932 32.1876 23.9393 32.1876C23.5853 32.1876 23.3167 32.0373 23.1024 31.7424C22.8973 31.4378 22.7957 31.0082 22.7957 30.442C22.7957 29.8777 22.8973 29.4521 23.1024 29.1572C23.3166 28.8526 23.5907 28.7023 23.9393 28.7023V28.7082Z" fill="black"/>
</svg>
