<svg width="50" height="50" viewBox="0 0 50 50" fill="none" xmlns="http://www.w3.org/2000/svg">
<circle cx="25" cy="25" r="25" transform="rotate(-180 25 25)" fill="#FF8A00"/>
<path d="M36.9984 24.365C36.9724 23.8705 36.8046 23.4041 36.5256 23.0388L23.2127 5.77678C22.8936 5.32163 22.4326 5.0435 21.9362 5.00416C21.4398 4.96764 20.9529 5.17274 20.5865 5.57169C20.2201 5.97346 20.0097 6.53535 20.0026 7.12542C19.9931 7.71543 20.1893 8.28579 20.5463 8.69878L32.7222 24.5L20.5439 40.3012C20.1893 40.7142 19.9931 41.2846 20.0002 41.8746C20.0096 42.4646 20.22 43.0265 20.5864 43.4283C20.9504 43.8273 21.4398 44.0324 21.9362 43.9958C22.4302 43.9565 22.8935 43.6784 23.2103 43.2232L36.5232 25.9612C36.8565 25.5285 37.0291 24.9526 36.996 24.3653L36.9984 24.365Z" fill="white"/>
</svg>
