<svg width="25" height="25" viewBox="0 0 25 25" fill="none" xmlns="http://www.w3.org/2000/svg">
<g clip-path="url(#clip0_9_373)">
<path d="M24.9364 9.59917C24.7601 9.0523 24.2512 8.68145 23.6769 8.68145H16.0747L13.7593 1.47231C13.5836 0.92544 13.0748 0.553955 12.5 0.553955C11.9252 0.553955 11.4164 0.92544 11.2407 1.47231L8.92532 8.6814H1.32307C0.748807 8.6814 0.239823 9.0522 0.0635531 9.59912C-0.112179 10.146 0.0848422 10.7441 0.551786 11.0787L6.71614 15.5046L4.34319 22.7087C4.16282 23.2553 4.35677 23.8547 4.82176 24.193C5.28704 24.5312 5.91746 24.5298 6.38133 24.1902L12.5 19.7066L18.6187 24.1902C19.0826 24.5299 19.713 24.5313 20.1783 24.1931C20.6433 23.8548 20.8372 23.2553 20.6574 22.7088L18.2839 15.5047L24.4482 11.0788C24.9151 10.7441 25.1122 10.146 24.9364 9.59917Z" fill="#FF8A00"/>
</g>
<defs>
<clipPath id="clip0_9_373">
<rect width="25" height="25" fill="white"/>
</clipPath>
</defs>
</svg>
