<svg width="25" height="40" viewBox="0 0 25 40" fill="none" xmlns="http://www.w3.org/2000/svg">
<path d="M22.1504 37.5576C23.8814 36.6508 25 34.4879 25 32.0463V31.9134C25 31.9127 25 31.9119 25 31.9119V19.1008C25 19.1001 25 19.0993 25 19.0993V18.3102C25 16.6402 24.6532 15.0006 23.9973 13.5675L23.291 12.0251C24.3377 11.375 24.9994 10.5411 24.9994 9.47788C24.9994 9.45814 24.9919 9.44143 24.9907 9.42168C24.9901 9.40194 24.9959 9.38447 24.9942 9.36472L24.5355 4.35466C24.5349 4.35011 24.5326 4.34631 24.532 4.34175C24.3546 0.919689 17.0437 0 12.6997 0C8.35503 0 1.04361 0.919689 0.866159 4.34175C0.865579 4.34631 0.863259 4.35011 0.862679 4.35466L0.404556 9.36472C0.402816 9.38447 0.409195 9.40194 0.408036 9.42168C0.406876 9.44143 0.399337 9.45738 0.399337 9.47712C0.399337 10.5236 1.04071 11.3492 2.0596 11.9947L1.34284 13.2971C0.474144 14.8745 0.0148609 16.7367 0.0137011 18.6816C-0.00427592 18.8046 -0.00485583 18.9246 0.0137011 19.0439V31.4957C-0.00427592 31.6188 -0.00485583 31.738 0.0137011 31.8565V32.0456C0.0137011 34.4872 1.13233 36.6501 2.86277 37.5569C5.97221 39.1859 9.23822 40 12.506 40C15.7737 40 19.0421 39.1859 22.1504 37.5576ZM1.46462 20.2711C4.67844 21.8477 8.61483 22.7143 12.7002 22.7143C16.6082 22.7143 20.4106 21.913 23.5502 20.4549V31.2421C20.4785 32.7784 16.654 33.629 12.7002 33.629C8.56206 33.629 4.6019 32.707 1.46462 31.0423V20.2711ZM12.7002 1.89861C19.1343 1.89861 22.8636 3.56256 23.0892 4.46782C22.8636 5.37308 19.1343 7.03626 12.7002 7.03626C6.23084 7.03626 2.49511 5.35409 2.30722 4.48225C2.49511 3.58003 6.23084 1.89861 12.7002 1.89861ZM1.85431 9.48851L2.11237 6.66869C4.42155 8.40858 9.41161 8.93488 12.7002 8.93488C15.9889 8.93488 20.9789 8.40858 23.2875 6.66869L23.5456 9.48472C23.367 10.412 19.4144 12.1921 12.7002 12.1921C8.30632 12.1921 5.10351 11.4289 3.358 10.6444C3.3551 10.6436 3.35278 10.6414 3.35046 10.6406C2.43132 10.2252 1.91404 9.80596 1.85431 9.48851ZM12.7002 14.09C15.4159 14.09 19.2491 13.7467 21.9114 12.7032L22.754 14.5434C23.2748 15.681 23.5502 16.9835 23.5502 18.3095V18.4302C20.4791 19.9666 16.6546 20.8164 12.7002 20.8164C8.56728 20.8164 4.61291 19.8975 1.47796 18.2373C1.54233 16.8551 1.89723 15.5398 2.51946 14.4082L3.46355 12.6934C6.12762 13.7444 9.97586 14.09 12.7002 14.09ZM1.58466 33.146C4.77645 34.6854 8.66644 35.5276 12.7002 35.5276C16.5363 35.5276 20.2749 34.7583 23.3815 33.3503C23.0979 34.4447 22.4676 35.3461 21.6122 35.7942C15.7407 38.8699 9.2736 38.8699 3.40208 35.7942C2.49453 35.3195 1.83924 34.333 1.58466 33.146Z" fill="black"/>
</svg>
